<svg width="10" height="9" viewBox="0 0 10 9" fill="none" xmlns="http://www.w3.org/2000/svg">
<path d="M8.99539 2.31507H7.58008V1.72845H8.99539C9.07442 1.72845 9.15021 1.75936 9.20609 1.81436C9.26196 1.86937 9.29336 1.94397 9.29336 2.02176C9.29336 2.09955 9.26196 2.17416 9.20609 2.22916C9.15021 2.28417 9.07442 2.31507 8.99539 2.31507Z" fill="#2F2F2F"/>
<path d="M5.64312 2.31507H1.24816C1.16913 2.31507 1.09335 2.28417 1.03747 2.22916C0.981588 2.17416 0.950195 2.09955 0.950195 2.02176C0.950195 1.94397 0.981588 1.86937 1.03747 1.81436C1.09335 1.75936 1.16913 1.72845 1.24816 1.72845H5.64312V2.31507Z" fill="#2F2F2F"/>
<path d="M5.64312 7.59468H1.24816C1.16913 7.59468 1.09335 7.56377 1.03747 7.50877C0.981588 7.45376 0.950195 7.37916 0.950195 7.30137C0.950195 7.22358 0.981588 7.14897 1.03747 7.09396C1.09335 7.03896 1.16913 7.00806 1.24816 7.00806H5.64312V7.59468Z" fill="#2F2F2F"/>
<path d="M8.99539 7.59468H7.58008V7.00806H8.99539C9.07442 7.00806 9.15021 7.03896 9.20609 7.09396C9.26196 7.14897 9.29336 7.22358 9.29336 7.30137C9.29336 7.37916 9.26196 7.45376 9.20609 7.50877C9.15021 7.56377 9.07442 7.59468 8.99539 7.59468Z" fill="#2F2F2F"/>
<path d="M8.99451 4.95509H4.54297V4.36847H8.99451C9.07354 4.36847 9.14933 4.39937 9.2052 4.45438C9.26108 4.50938 9.29247 4.58399 9.29247 4.66178C9.29247 4.73957 9.26108 4.81417 9.2052 4.86918C9.14933 4.92419 9.07354 4.95509 8.99451 4.95509Z" fill="#2F2F2F"/>
<path d="M2.60689 4.95509H1.24816C1.16914 4.95509 1.09335 4.92419 1.03747 4.86918C0.981588 4.81417 0.950195 4.73957 0.950195 4.66178C0.950195 4.58399 0.981588 4.50938 1.03747 4.45438C1.09335 4.39937 1.16914 4.36847 1.24816 4.36847H2.60689V4.95509Z" fill="#2F2F2F"/>
<path d="M6.56585 3.19505C6.33013 3.19505 6.0997 3.12624 5.90371 2.99732C5.70771 2.8684 5.55495 2.68517 5.46475 2.47079C5.37454 2.25641 5.35094 2.02051 5.39692 1.79292C5.44291 1.56534 5.55642 1.35629 5.7231 1.19221C5.88978 1.02813 6.10215 0.916385 6.33334 0.871116C6.56453 0.825846 6.80417 0.84908 7.02195 0.93788C7.23973 1.02668 7.42587 1.17706 7.55683 1.36999C7.68779 1.56293 7.75769 1.78976 7.75769 2.02181C7.75769 2.33297 7.63212 2.63139 7.40861 2.85141C7.18509 3.07144 6.88195 3.19505 6.56585 3.19505ZM6.56585 1.43519C6.44799 1.43519 6.33278 1.4696 6.23478 1.53405C6.13678 1.59851 6.0604 1.69013 6.0153 1.79732C5.9702 1.90451 5.9584 2.02246 5.98139 2.13625C6.00438 2.25005 6.06114 2.35457 6.14448 2.43661C6.22782 2.51865 6.334 2.57452 6.4496 2.59716C6.56519 2.61979 6.68501 2.60817 6.7939 2.56377C6.90279 2.51937 6.99586 2.44419 7.06134 2.34772C7.12682 2.25125 7.16177 2.13783 7.16177 2.02181C7.16177 1.86623 7.09899 1.71702 6.98723 1.60701C6.87547 1.49699 6.7239 1.43519 6.56585 1.43519Z" fill="#2F2F2F"/>
<path d="M3.64986 5.8347C3.41414 5.8347 3.1837 5.76589 2.9877 5.63697C2.7917 5.50805 2.63894 5.32482 2.54873 5.11044C2.45852 4.89606 2.43492 4.66016 2.48091 4.43257C2.5269 4.20499 2.64041 3.99593 2.80709 3.83185C2.97378 3.66777 3.18615 3.55603 3.41734 3.51076C3.64854 3.46549 3.88818 3.48873 4.10597 3.57753C4.32375 3.66633 4.50989 3.8167 4.64085 4.00964C4.77182 4.20258 4.84172 4.42941 4.84172 4.66146C4.84172 4.97262 4.71615 5.27104 4.49263 5.49106C4.26911 5.71109 3.96596 5.8347 3.64986 5.8347ZM3.64986 4.07484C3.532 4.07484 3.41678 4.10924 3.31878 4.1737C3.22078 4.23816 3.1444 4.32978 3.0993 4.43697C3.05419 4.54416 3.04239 4.66211 3.06539 4.7759C3.08838 4.88969 3.14514 4.99422 3.22848 5.07626C3.31182 5.1583 3.418 5.21417 3.5336 5.23681C3.6492 5.25944 3.76902 5.24782 3.87791 5.20342C3.98681 5.15902 4.07988 5.08384 4.14536 4.98737C4.21084 4.8909 4.24579 4.77748 4.24579 4.66146C4.24579 4.50588 4.183 4.35667 4.07125 4.24666C3.95949 4.13664 3.80791 4.07484 3.64986 4.07484Z" fill="#2F2F2F"/>
<path d="M6.68597 8.47471C6.45025 8.47471 6.21982 8.4059 6.02383 8.27698C5.82783 8.14807 5.67507 7.96483 5.58486 7.75045C5.49466 7.53607 5.47105 7.30017 5.51704 7.07259C5.56303 6.845 5.67654 6.63595 5.84322 6.47187C6.0099 6.30779 6.22226 6.19605 6.45346 6.15078C6.68465 6.10551 6.92429 6.12874 7.14207 6.21754C7.35984 6.30634 7.54598 6.45672 7.67694 6.64966C7.8079 6.8426 7.8778 7.06943 7.8778 7.30147C7.8778 7.61263 7.75223 7.91105 7.52872 8.13108C7.30521 8.3511 7.00207 8.47471 6.68597 8.47471ZM6.68597 6.71485C6.56811 6.71485 6.4529 6.74926 6.3549 6.81372C6.2569 6.87818 6.18052 6.96979 6.13542 7.07698C6.09031 7.18417 6.07851 7.30212 6.10151 7.41592C6.1245 7.52971 6.18126 7.63423 6.2646 7.71627C6.34794 7.79831 6.45412 7.85418 6.56971 7.87682C6.68531 7.89945 6.80513 7.88784 6.91402 7.84344C7.02291 7.79904 7.11598 7.72385 7.18146 7.62738C7.24694 7.53091 7.28189 7.4175 7.28189 7.30147C7.28189 7.14589 7.2191 6.99668 7.10735 6.88667C6.99559 6.77666 6.84402 6.71485 6.68597 6.71485Z" fill="#2F2F2F"/>
</svg>
