<svg width="23" height="21" viewBox="0 0 23 21" fill="none" xmlns="http://www.w3.org/2000/svg">
<path d="M21.2382 4.09313H17.603V2.55469H21.2382C21.4412 2.55469 21.6359 2.63573 21.7794 2.77999C21.9229 2.92424 22.0035 3.1199 22.0035 3.32391C22.0035 3.52792 21.9229 3.72358 21.7794 3.86783C21.6359 4.01209 21.4412 4.09313 21.2382 4.09313Z" fill="#2F2F2F"/>
<path d="M12.6273 4.09313H1.33904C1.13607 4.09313 0.941406 4.01209 0.797884 3.86783C0.654361 3.72358 0.57373 3.52792 0.57373 3.32391C0.57373 3.1199 0.654361 2.92424 0.797884 2.77999C0.941406 2.63573 1.13607 2.55469 1.33904 2.55469H12.6273V4.09313Z" fill="#2F2F2F"/>
<path d="M12.6273 17.9408H1.33904C1.13607 17.9408 0.941406 17.8597 0.797884 17.7155C0.654361 17.5712 0.57373 17.3756 0.57373 17.1716C0.57373 16.9676 0.654361 16.7719 0.797884 16.6276C0.941406 16.4834 1.13607 16.4023 1.33904 16.4023H12.6273V17.9408Z" fill="#2F2F2F"/>
<path d="M21.2382 17.9408H17.603V16.4023H21.2382C21.4412 16.4023 21.6359 16.4834 21.7794 16.6276C21.9229 16.7719 22.0035 16.9676 22.0035 17.1716C22.0035 17.3756 21.9229 17.5712 21.7794 17.7155C21.6359 17.8597 21.4412 17.9408 21.2382 17.9408Z" fill="#2F2F2F"/>
<path d="M21.2359 11.017H9.80225V9.47852H21.2359C21.4389 9.47852 21.6336 9.55956 21.7771 9.70382C21.9206 9.84807 22.0012 10.0437 22.0012 10.2477C22.0012 10.4517 21.9206 10.6474 21.7771 10.7917C21.6336 10.9359 21.4389 11.017 21.2359 11.017Z" fill="#2F2F2F"/>
<path d="M4.82884 11.017H1.33904C1.13607 11.017 0.941406 10.9359 0.797884 10.7917C0.654361 10.6474 0.57373 10.4517 0.57373 10.2477C0.57373 10.0437 0.654361 9.84807 0.797884 9.70382C0.941406 9.55956 1.13607 9.47852 1.33904 9.47852H4.82884V11.017Z" fill="#2F2F2F"/>
<path d="M15.0002 6.40183C14.3947 6.40183 13.8029 6.22137 13.2995 5.88328C12.7961 5.54519 12.4037 5.06464 12.172 4.50241C11.9403 3.94019 11.8797 3.32153 11.9978 2.72467C12.1159 2.12781 12.4075 1.57956 12.8356 1.14925C13.2637 0.718938 13.8092 0.425892 14.403 0.30717C14.9968 0.188447 15.6123 0.24938 16.1717 0.482263C16.731 0.715145 17.2091 1.10952 17.5455 1.61551C17.8819 2.1215 18.0614 2.71639 18.0614 3.32494C18.0614 4.14098 17.7389 4.9236 17.1648 5.50063C16.5907 6.07766 15.8121 6.40183 15.0002 6.40183ZM15.0002 1.78649C14.6975 1.78649 14.4015 1.87672 14.1498 2.04577C13.8981 2.21481 13.7019 2.45509 13.5861 2.7362C13.4702 3.01732 13.4399 3.32665 13.499 3.62507C13.558 3.9235 13.7038 4.19763 13.9179 4.41278C14.1319 4.62794 14.4047 4.77446 14.7016 4.83382C14.9985 4.89318 15.3062 4.86272 15.5859 4.74628C15.8656 4.62984 16.1047 4.43265 16.2729 4.17965C16.441 3.92666 16.5308 3.62921 16.5308 3.32494C16.5308 2.91692 16.3695 2.52561 16.0825 2.23709C15.7955 1.94858 15.4061 1.78649 15.0002 1.78649Z" fill="#2F2F2F"/>
<path d="M7.50801 13.3257C6.90255 13.3257 6.3107 13.1452 5.80728 12.8071C5.30386 12.469 4.9115 11.9885 4.6798 11.4262C4.4481 10.864 4.38748 10.2454 4.5056 9.6485C4.62372 9.05164 4.91527 8.50339 5.34339 8.07308C5.77151 7.64277 6.31697 7.34972 6.91079 7.231C7.50461 7.11228 8.12012 7.17321 8.67949 7.40609C9.23885 7.63897 9.71695 8.03335 10.0533 8.53934C10.3897 9.04533 10.5692 9.64022 10.5692 10.2488C10.5692 11.0648 10.2467 11.8474 9.67262 12.4245C9.09853 13.0015 8.31989 13.3257 7.50801 13.3257ZM7.50801 8.71032C7.20528 8.71032 6.90935 8.80055 6.65764 8.9696C6.40593 9.13864 6.20975 9.37892 6.0939 9.66003C5.97805 9.94114 5.94774 10.2505 6.0068 10.5489C6.06586 10.8473 6.21164 11.1215 6.4257 11.3366C6.63976 11.5518 6.91249 11.6983 7.2094 11.7577C7.50631 11.817 7.81406 11.7865 8.09375 11.6701C8.37343 11.5537 8.61248 11.3565 8.78066 11.1035C8.94885 10.8505 9.03862 10.553 9.03862 10.2488C9.03862 9.84075 8.87736 9.44944 8.59031 9.16092C8.30327 8.87241 7.91395 8.71032 7.50801 8.71032Z" fill="#2F2F2F"/>
<path d="M15.3068 20.2475C14.7014 20.2475 14.1095 20.0671 13.6061 19.729C13.1027 19.3909 12.7103 18.9103 12.4786 18.3481C12.2469 17.7859 12.1863 17.1672 12.3044 16.5704C12.4225 15.9735 12.7141 15.4253 13.1422 14.995C13.5703 14.5646 14.1158 14.2716 14.7096 14.1529C15.3034 14.0342 15.9189 14.0951 16.4783 14.328C17.0377 14.5608 17.5158 14.9552 17.8521 15.4612C18.1885 15.9672 18.3681 16.5621 18.3681 17.1706C18.3681 17.9867 18.0455 18.7693 17.4714 19.3463C16.8974 19.9234 16.1187 20.2475 15.3068 20.2475ZM15.3068 15.6322C15.0041 15.6322 14.7082 15.7224 14.4565 15.8915C14.2048 16.0605 14.0086 16.3008 13.8927 16.5819C13.7769 16.863 13.7466 17.1723 13.8056 17.4708C13.8647 17.7692 14.0105 18.0433 14.2245 18.2585C14.4386 18.4736 14.7113 18.6202 15.0082 18.6795C15.3051 18.7389 15.6129 18.7084 15.8926 18.592C16.1723 18.4755 16.4113 18.2784 16.5795 18.0254C16.7477 17.7724 16.8374 17.4749 16.8374 17.1706C16.8374 16.7626 16.6762 16.3713 16.3891 16.0828C16.1021 15.7943 15.7128 15.6322 15.3068 15.6322Z" fill="#2F2F2F"/>
</svg>
