<?xml version="1.0" encoding="utf-8"?>
<!-- Generator: Adobe Illustrator 26.0.3, SVG Export Plug-In . SVG Version: 6.00 Build 0)  -->
<svg version="1.2" baseProfile="tiny" id="Layer_1" xmlns="http://www.w3.org/2000/svg" xmlns:xlink="http://www.w3.org/1999/xlink"
	 x="0px" y="0px" viewBox="0 0 62.2 14" overflow="visible" xml:space="preserve">
<path fill="#FFFFFF" d="M0,11h1.6V8.5H3c1.6,0,2.6-0.9,2.6-2.4c0-1.5-1-2.4-2.6-2.4H0V11z M1.6,7V5H3c0.7,0,1,0.3,1,1
	c0,0.6-0.4,1-1,1H1.6z"/>
<path fill="#FFFFFF" d="M12.3,11h1.5l-2.6-7.4H9.8L7.2,11h1.5l0.4-1.1h2.8L12.3,11z M9.6,8.5l0.9-2.7h0l0.9,2.7H9.6z"/>
<path fill="#FFFFFF" d="M16.7,11h1.6V6.3h0l2.5,4.7h1.6V3.6h-1.6v4.7h0l-2.5-4.7h-1.6V11z"/>
<path fill="#FFFFFF" d="M30.3,11h1.5l-2.6-7.4h-1.4L25.1,11h1.5l0.4-1.1h2.8L30.3,11z M27.5,8.5l0.9-2.7h0l0.9,2.7H27.5z"/>
<path fill="#FFFFFF" d="M38.7,8.2L38.7,8.2c0.9-0.4,1.4-1.2,1.4-2.2c0-1.5-1-2.4-2.5-2.4h-3V11h1.6V8.4h0.9l1.4,2.6h1.7L38.7,8.2z
	 M36.2,7V5h1.3c0.8,0,1.1,0.3,1.1,0.9c0,0.6-0.4,1-1.1,1H36.2z"/>
<path fill="#FFFFFF" d="M44.8,11h1.6V5h2.1V3.6h-5.8V5h2.1V11z"/>
<path fill="#FFFFFF" d="M51.5,11h1.6V3.6h-1.6V11z"/>
<path fill="#FFFFFF" d="M59.3,11.1c1.6,0,2.7-0.9,2.7-2.1c0-1.2-0.7-1.9-2.6-2.5c-1.1-0.4-1.4-0.6-1.4-1c0-0.4,0.4-0.7,1-0.7
	c0.7,0,1.1,0.3,1.3,1.1l1.5-0.3c-0.2-1.3-1.3-2.2-2.8-2.2c-1.5,0-2.5,0.9-2.5,2.1c0,1.1,0.6,1.7,2.4,2.3c1.2,0.4,1.6,0.7,1.6,1.2
	c0,0.5-0.4,0.7-1.1,0.7c-1,0-1.4-0.4-1.6-1.5l-1.5,0.3C56.4,10.2,57.5,11.1,59.3,11.1z"/>
</svg>
