<svg width="85" height="14" viewBox="0 0 85 14" fill="#FFFFFF" xmlns="http://www.w3.org/2000/svg">
<path d="M22.8457 10.9805H24.4058V8.46109H25.85C27.4629 8.46109 28.4327 7.56507 28.4327 6.03656C28.4327 4.51859 27.4418 3.60148 25.8711 3.60148H22.8457V10.9805ZM24.4058 7.02745V5.02458H25.8395C26.5141 5.02458 26.8725 5.35136 26.8725 6.02601C26.8725 6.64796 26.4509 7.02745 25.8289 7.02745H24.4058Z" fill="#FFFFFF"/>
<path d="M35.1759 10.9805H36.7255L34.0901 3.60148H32.6565L30.0211 10.9805H31.5707L31.9608 9.83148H34.7859L35.1759 10.9805ZM32.4351 8.46109L33.3628 5.7414H33.3839L34.3115 8.46109H32.4351Z" fill="#FFFFFF"/>
<path d="M39.5082 10.9805H41.0683V6.28955H41.0894L43.5877 10.9805H45.19V3.60148H43.6299V8.29243H43.6088L41.1105 3.60148H39.5082V10.9805Z" fill="#FFFFFF"/>
<path d="M53.1252 10.9805H54.6748L52.0394 3.60148H50.6058L47.9704 10.9805H49.52L49.91 9.83148H52.7352L53.1252 10.9805ZM50.3844 8.46109L51.3121 5.7414H51.3331L52.2608 8.46109H50.3844Z" fill="#FFFFFF"/>
<path d="M61.537 8.21864V8.20809C62.4436 7.86023 62.9812 7.05908 62.9812 5.98385C62.9812 4.50805 62.0219 3.60148 60.4618 3.60148H57.4575V10.9805H59.0176V8.3873H59.9663L61.3578 10.9805H63.0339L61.537 8.21864ZM59.0176 6.9642V5.02458H60.2721C61.031 5.02458 61.4211 5.34082 61.4211 5.97331C61.4211 6.61634 61.0205 6.9642 60.2721 6.9642H59.0176Z" fill="#FFFFFF"/>
<path d="M67.6035 10.9805H69.1637V5.03512H71.2931V3.60148H65.4636V5.03512H67.6035V10.9805Z" fill="#FFFFFF"/>
<path d="M74.3773 10.9805H75.9375V3.60148H74.3773V10.9805Z" fill="#FFFFFF"/>
<path d="M82.1054 11.1386C83.7288 11.1386 84.8251 10.2848 84.8251 9.00924C84.8251 7.81806 84.1082 7.11178 82.274 6.4793C81.1777 6.11035 80.8615 5.89952 80.8615 5.52003C80.8615 5.10891 81.241 4.84537 81.8208 4.84537C82.4954 4.84537 82.9065 5.19324 83.1068 5.94168L84.6248 5.6149C84.3929 4.30776 83.2755 3.44336 81.8208 3.44336C80.345 3.44336 79.3224 4.29722 79.3224 5.53057C79.3224 6.61634 79.9655 7.23828 81.6837 7.81806C82.9065 8.22918 83.2649 8.50325 83.2649 9.00924C83.2649 9.47307 82.8538 9.7366 82.1265 9.7366C81.1461 9.7366 80.7034 9.31495 80.5136 8.21864L78.9851 8.54542C79.2486 10.2321 80.3449 11.1386 82.1054 11.1386Z" fill="#FFFFFF"/>
<path d="M9.94226 6.29424C9.72477 6.30569 9.50729 6.32286 9.2898 6.33431C8.76666 6.37439 8.24352 6.40874 7.7145 6.44881C7.49701 6.46599 7.27365 6.47744 7.05616 6.50034C7.00913 6.50606 6.96211 6.52324 6.92096 6.54614C6.1627 6.97551 5.40444 7.40489 4.64618 7.83426C4.63442 7.83999 4.62267 7.85144 4.59915 7.87434C4.63442 7.88579 4.65793 7.90297 4.68145 7.90869C5.38093 8.06327 6.08041 8.21784 6.78577 8.36669C6.89157 8.38959 6.94448 8.44112 6.97387 8.54417C7.39708 10.0956 7.8203 11.6471 8.24352 13.1929C8.26115 13.2501 8.26703 13.3131 8.24939 13.3646C8.23176 13.4448 8.14359 13.4734 8.03779 13.4505C7.53816 13.3417 7.0444 13.233 6.54477 13.1242C6.05102 13.0154 5.55727 12.9066 5.06352 12.7978C5.01061 12.7864 4.95183 12.7635 4.91069 12.7349C4.1054 12.2139 3.30011 11.6929 2.49483 11.1777C2.43017 11.1376 2.38902 11.0861 2.36551 11.0116C1.97169 9.54604 1.58374 8.07472 1.17816 6.60911C1.10174 6.35149 1.09586 6.12249 1.17816 5.87059C1.41328 5.13206 1.61901 4.38208 1.83649 3.63783C1.86 3.55768 1.90115 3.50616 1.97169 3.46608C3.15316 2.80198 4.32877 2.13215 5.50437 1.46805C5.55727 1.44515 5.62193 1.42225 5.68071 1.42225C6.60355 1.35355 7.5264 1.2963 8.44925 1.2276C8.943 1.19325 9.44263 1.15318 9.93638 1.11883C9.98928 1.1131 10.0598 1.136 10.1068 1.16463C10.9239 1.6856 11.7409 2.20085 12.5521 2.72755C12.605 2.7619 12.6461 2.82488 12.6638 2.88786C13.0929 4.43933 13.5161 5.99654 13.9334 7.54801C13.9511 7.61099 13.9569 7.69114 13.9334 7.75412C13.6865 8.58424 13.4338 9.41437 13.1869 10.2502C13.1634 10.3361 13.1164 10.3876 13.04 10.4277C11.8702 11.0975 10.6946 11.7673 9.52492 12.4372C9.37209 12.523 9.27217 12.483 9.22514 12.3169C8.80193 10.7655 8.37871 9.20827 7.94962 7.65679C7.90847 7.51366 7.93198 7.46786 8.0613 7.39344C8.67261 7.04994 9.27804 6.70071 9.88936 6.35721C9.90699 6.34576 9.92462 6.33431 9.93638 6.32286C9.94814 6.31141 9.94814 6.30569 9.94226 6.29424ZM9.87172 1.4566C9.69538 1.45088 5.93934 1.6856 5.85705 1.7543C6.25675 3.22563 6.65645 4.70268 7.06204 6.17974C7.30303 6.16256 7.53228 6.15111 7.76152 6.13394C8.63146 6.07096 9.50141 6.00226 10.3714 5.95074C10.6124 5.93356 10.8181 5.85914 11.0179 5.69884C10.6359 4.29048 10.2538 2.87641 9.87172 1.4566ZM12.8342 10.1815C12.4345 8.69874 12.0407 7.22169 11.641 5.72746C10.5124 6.36866 9.40736 6.99841 8.29054 7.63389C8.69612 9.11667 9.09583 10.588 9.50729 12.0879C10.6241 11.4467 11.7233 10.817 12.8342 10.1815ZM5.53963 1.81728C4.41694 2.45275 3.31187 3.08251 2.20093 3.70653C2.21268 3.75806 2.21856 3.79241 2.22444 3.82676C2.31849 4.16453 2.40666 4.50231 2.50071 4.84008C2.71231 5.62441 2.9298 6.40301 3.14141 7.18734C3.15316 7.23886 3.18255 7.29611 3.2237 7.32474C3.4118 7.45069 3.59989 7.58236 3.79387 7.69114C3.93494 7.76556 4.07601 7.79419 4.2406 7.69686C5.02825 7.23886 5.82766 6.79231 6.61531 6.34576C6.65058 6.32286 6.69172 6.29996 6.73287 6.27134C6.34492 4.78856 5.94522 3.31151 5.53963 1.81728ZM7.84381 13.0784C7.84969 13.0727 7.86144 13.0612 7.86732 13.0555C7.46762 11.5899 7.06791 10.13 6.66821 8.67012C6.60943 8.65294 6.56828 8.64149 6.52714 8.63004C5.77475 8.46402 5.02237 8.30372 4.26999 8.13769C4.17594 8.11479 4.1054 8.12624 4.02311 8.19494C4.40518 9.62619 4.79313 11.0632 5.1752 12.5001C6.07453 12.6891 6.95623 12.8837 7.84381 13.0784ZM4.76962 12.2482C4.75786 12.1967 4.75786 12.1624 4.7461 12.128C4.38167 10.7712 4.02311 9.41437 3.65279 8.05754C3.63516 8.00029 3.59401 7.94304 3.54699 7.90869C2.90629 7.49076 2.26559 7.07856 1.61901 6.66636C1.59549 6.64919 1.5661 6.64346 1.51908 6.62056C1.53671 6.68926 1.54847 6.73506 1.56023 6.78086C1.91878 8.11479 2.28322 9.45444 2.64178 10.7884C2.66529 10.8742 2.70644 10.9258 2.78285 10.9716C3.4118 11.3723 4.03487 11.7788 4.65793 12.1853C4.68732 12.2024 4.71671 12.2196 4.76962 12.2482ZM13.0282 9.62619C13.0458 9.58039 13.0635 9.55749 13.0694 9.52887C13.2516 8.93347 13.4279 8.33234 13.6043 7.73122C13.6219 7.67969 13.616 7.61099 13.6043 7.55946C13.5514 7.33619 13.4867 7.11291 13.422 6.88964C13.1281 5.80189 12.8284 4.71986 12.5345 3.63211C12.5227 3.59776 12.5109 3.56341 12.4933 3.50616C12.4757 3.55196 12.4639 3.56341 12.4639 3.58058C12.2876 4.19316 12.1054 4.81146 11.929 5.42404C11.9173 5.46984 11.9231 5.52708 11.9349 5.57289C12.2876 6.88391 12.6344 8.19494 12.9871 9.50024C12.9929 9.54032 13.0106 9.57467 13.0282 9.62619ZM11.6057 5.38396C11.8409 4.57101 12.076 3.76378 12.3111 2.95083C11.6292 2.51573 10.965 2.09208 10.2949 1.6627C10.2832 1.66843 10.2773 1.67415 10.2655 1.67988C10.6124 2.96228 10.9592 4.25041 11.3118 5.54999C11.4235 5.48701 11.5117 5.43549 11.6057 5.38396ZM2.01871 4.29048C2.00695 4.29048 1.9952 4.29048 1.98344 4.29048C1.80122 4.90878 1.61901 5.53281 1.43091 6.16829C1.86588 6.44881 2.29498 6.72361 2.72407 6.99841C2.73583 6.99269 2.7417 6.98124 2.75346 6.97551C2.50658 6.07669 2.26559 5.18358 2.01871 4.29048Z" fill="#FFFFFF"/>
<path d="M8.10244 13.5936C8.07305 13.5936 8.03779 13.5879 8.00252 13.5822L6.20385 13.1872C5.81002 13.1013 5.42207 13.0154 5.02825 12.9295C4.95771 12.9123 4.88718 12.8837 4.8284 12.8436L2.41254 11.2807C2.34788 11.2406 2.25971 11.1719 2.22444 11.0345L2.00108 10.193C1.67779 9.00789 1.3545 7.82282 1.03121 6.63774C0.954792 6.35149 0.954792 6.09386 1.03708 5.83051C1.22518 5.22938 1.40152 4.62253 1.57786 4.02141L1.7013 3.60348C1.73657 3.48898 1.80122 3.40883 1.90703 3.34586L5.43971 1.34783C5.51024 1.30775 5.59254 1.28485 5.67483 1.27913C6.2156 1.23905 6.7505 1.2047 7.29128 1.16463L9.06644 1.03868C9.35446 1.01578 9.64248 0.992877 9.93638 0.975701C10.0187 0.969976 10.1186 0.998602 10.195 1.0444C11.0121 1.56538 11.8291 2.08635 12.6403 2.60733C12.7167 2.65885 12.7872 2.75045 12.8107 2.84778C13.2398 4.39926 13.663 5.95646 14.0804 7.50794C14.1039 7.60526 14.1039 7.70831 14.0804 7.79419C13.9452 8.24647 13.81 8.69874 13.6748 9.15102C13.5631 9.52887 13.4455 9.90672 13.3339 10.2846C13.2986 10.3991 13.2339 10.4849 13.1223 10.5479C11.9525 11.2177 10.7769 11.8876 9.60721 12.5574C9.48965 12.6261 9.38385 12.6375 9.2898 12.6032C9.19575 12.5631 9.13109 12.483 9.09583 12.3513C8.67261 10.7998 8.24939 9.24262 7.8203 7.69114C7.76152 7.48504 7.80854 7.37626 7.99664 7.26749L9.40148 6.47171C9.36621 6.47171 9.33682 6.47744 9.30156 6.47744L7.53816 6.60339C7.37945 6.61484 7.22662 6.62629 7.06791 6.63774C7.0444 6.63774 7.01501 6.64919 6.9915 6.66064C6.31553 7.04421 5.63956 7.42779 4.95771 7.81136C5.5749 7.94877 6.19209 8.08044 6.80928 8.21212C6.96799 8.24647 7.06791 8.33807 7.10906 8.49264L8.37871 13.1414C8.39634 13.2043 8.4081 13.2902 8.39047 13.3818C8.36108 13.5192 8.24939 13.5936 8.10244 13.5936ZM1.26633 6.23126C1.26633 6.34004 1.28396 6.44881 1.31335 6.56331C1.64252 7.74839 1.95993 8.93919 2.27734 10.1243L2.50071 10.9658C2.50658 10.9945 2.52422 11.0174 2.57124 11.046L4.9871 12.6032C5.01649 12.6204 5.05764 12.6375 5.09291 12.649C5.48673 12.7349 5.87468 12.8208 6.26263 12.9066L8.0613 13.3017C8.09069 13.3074 8.1142 13.3074 8.1142 13.3017C8.10244 13.2959 8.10244 13.2559 8.09069 13.2158L6.82104 8.56707C6.80928 8.51554 6.79753 8.50409 6.74462 8.49264C6.08629 8.34952 5.43383 8.20639 4.77549 8.06327L4.6403 8.03464C4.61091 8.02892 4.58152 8.01747 4.55801 8.00602L4.3464 7.90869L4.49335 7.74839C4.52274 7.72549 4.54037 7.70831 4.56389 7.69686L4.78725 7.57091C5.4691 7.18161 6.15682 6.79804 6.83867 6.40874C6.89745 6.37439 6.96799 6.35149 7.03265 6.34576C7.19135 6.33431 7.35006 6.32286 7.50876 6.31141L9.27217 6.18546C9.41912 6.17401 9.56607 6.16829 9.71302 6.15684L10.0598 6.13394L10.101 6.38011L10.0304 6.43164C10.0069 6.44881 9.98928 6.46026 9.97165 6.47171L8.13771 7.51366C8.09657 7.53656 8.08481 7.54801 8.07893 7.55374C8.07893 7.55374 8.07893 7.57091 8.09657 7.61671C8.51978 9.16819 8.94888 10.7254 9.37209 12.2769C9.38385 12.3169 9.3956 12.3341 9.3956 12.3398C9.3956 12.3398 9.41912 12.3341 9.44851 12.3112C10.6182 11.6414 11.7938 10.9716 12.9636 10.3017C13.0106 10.2788 13.0282 10.2502 13.04 10.2044C13.1516 9.82657 13.2633 9.44872 13.3809 9.07087C13.5161 8.61859 13.6513 8.16632 13.7865 7.71404C13.7982 7.67969 13.7982 7.62816 13.7865 7.58236C13.3633 6.02516 12.94 4.47368 12.5168 2.92221C12.5109 2.89358 12.4816 2.85923 12.4639 2.84778C11.6528 2.32108 10.8357 1.80583 10.0187 1.28485C9.99516 1.26768 9.95989 1.26195 9.93638 1.26195C9.64836 1.27913 9.36034 1.30203 9.07231 1.32493L7.29128 1.45088C6.75638 1.48523 6.2156 1.5253 5.68071 1.56538C5.64544 1.56538 5.60429 1.58255 5.56902 1.59973L2.0481 3.59203C2.00695 3.61493 1.98932 3.63783 1.97756 3.67791L1.86 4.09583C1.68366 4.70268 1.5132 5.30954 1.31923 5.91066C1.28396 6.01371 1.26633 6.11104 1.26633 6.21409L1.87764 4.13591L2.101 4.15308L2.15978 4.25613L2.91804 7.03276L2.76522 7.15871L2.64766 7.12436L1.26633 6.23126ZM1.60137 6.10531L2.52422 6.70071L1.9952 4.76566L1.60137 6.10531ZM7.81442 13.2158L5.06352 12.6146L3.8644 8.13769L3.93494 8.08044C4.07601 7.96022 4.21708 7.97167 4.31113 7.99457C4.8284 8.10907 5.34566 8.22357 5.86292 8.33807L6.56828 8.49264C6.60355 8.49837 6.63294 8.50982 6.67409 8.52127L6.79753 8.55562L8.03779 13.1013L7.92023 13.2158H7.81442ZM5.29864 12.3742L7.67335 12.8952L6.55065 8.77889C6.53302 8.77317 6.51538 8.76744 6.49775 8.76744L5.79239 8.61287C5.27512 8.49837 4.75786 8.38387 4.2406 8.26937C4.22296 8.26364 4.21121 8.26364 4.19945 8.26364L5.29864 12.3742ZM4.96947 12.523L4.65206 12.3456C4.62267 12.3284 4.59915 12.3169 4.58152 12.3055L4.04074 11.9563C3.59402 11.67 3.15316 11.3838 2.70644 11.0975C2.60063 11.0288 2.53597 10.9429 2.50658 10.8284C2.2362 9.82657 1.96581 8.82469 1.69542 7.82282L1.30159 6.36866L1.61901 6.50606C1.65427 6.51751 1.67779 6.52896 1.7013 6.54614L1.98932 6.73506C2.53597 7.08429 3.08263 7.43924 3.62928 7.79419C3.7057 7.84572 3.77036 7.93732 3.79387 8.02319C4.1583 9.38002 4.52274 10.7368 4.88718 12.0937C4.89305 12.1166 4.89893 12.1452 4.90481 12.1738L4.96947 12.523ZM1.74832 6.91826L1.97169 7.74266C2.24207 8.74454 2.51246 9.74642 2.78285 10.7483C2.79461 10.7941 2.81224 10.817 2.85926 10.8513C3.30599 11.1376 3.74684 11.4238 4.19357 11.7101L4.54037 11.9334C4.19945 10.651 3.85265 9.36857 3.50585 8.08617C3.49997 8.06327 3.47646 8.03464 3.45882 8.02319C2.91217 7.66824 2.36551 7.31329 1.82474 6.96406L1.74832 6.91826ZM9.41324 12.3055L8.12008 7.56519L11.735 5.50991L13.0106 10.2502L9.41324 12.3055ZM8.461 7.70259L9.60133 11.8647L12.6638 10.1128L11.547 5.94501L8.461 7.70259ZM13.0223 10.0155L12.8754 9.62619C12.8636 9.59184 12.8519 9.56894 12.846 9.54032C12.4933 8.22929 12.1406 6.92399 11.7938 5.61296C11.7821 5.56716 11.7644 5.47556 11.788 5.38969C11.9408 4.84581 12.0995 4.30766 12.2582 3.76378L12.3581 3.44891L12.5051 3.09968L12.652 3.50616C12.6638 3.53478 12.6697 3.56341 12.6814 3.58631L13.6219 7.02704C13.6689 7.18734 13.7101 7.35336 13.7512 7.51366C13.763 7.56519 13.7806 7.66252 13.7512 7.75984C13.5807 8.34952 13.3985 8.93347 13.2222 9.52314C13.2046 9.58039 13.1987 9.59757 13.181 9.63192L13.0223 10.0155ZM12.4874 4.01568C12.3464 4.50231 12.2053 4.98321 12.0701 5.46984C12.0642 5.48129 12.0642 5.50991 12.076 5.54426C12.3934 6.74079 12.7167 7.93732 13.04 9.13384C13.1869 8.64149 13.328 8.17204 13.4691 7.69686C13.4749 7.67396 13.4749 7.63389 13.4632 7.59381C13.422 7.43351 13.3809 7.27321 13.3339 7.11291L12.4874 4.01568ZM4.04074 7.89724C3.94082 7.89724 3.84089 7.86862 3.73509 7.81136C3.52348 7.69686 3.32363 7.55946 3.14729 7.43924C3.05912 7.37626 3.01797 7.26749 3.00621 7.22169C2.84163 6.62629 2.67705 6.03089 2.51246 5.43549L2.08337 3.86111C2.07749 3.83248 2.07161 3.80958 2.06573 3.77523L2.04222 3.63211L5.63368 1.59973L6.92096 6.33431L6.78577 6.41446C6.75638 6.43164 6.72699 6.44881 6.70348 6.46599L6.03926 6.83811C5.4691 7.15871 4.89305 7.48504 4.32289 7.81709C4.22884 7.87434 4.13479 7.89724 4.04074 7.89724ZM2.36551 3.78096V3.78668L2.79461 5.36106C2.95919 5.95646 3.1179 6.55186 3.28248 7.14726C3.29424 7.18161 3.30599 7.20451 3.31187 7.20451C3.48233 7.31901 3.67043 7.45069 3.87028 7.55946C3.98784 7.62244 4.07013 7.62816 4.17006 7.56519C4.74023 7.23314 5.31627 6.91254 5.88644 6.58621L6.55653 6.21981C6.56241 6.21409 6.57416 6.20836 6.58004 6.20836L5.44559 2.03483L2.36551 3.78096ZM6.95035 6.33431L5.69246 1.70278L5.76888 1.64553C5.92758 1.51958 9.81882 1.31348 9.8776 1.31348L9.9834 1.3192L11.1825 5.75609L11.112 5.81334C10.8886 5.99081 10.6535 6.07669 10.3772 6.09386C9.76592 6.13394 9.15461 6.17974 8.54329 6.21981L6.95035 6.33431ZM6.03926 1.8688L7.16784 6.03089L8.51978 5.93356C9.13109 5.88776 9.74241 5.84196 10.3596 5.80761C10.5477 5.79616 10.7005 5.74464 10.8533 5.64159L9.75416 1.60545C9.17224 1.62263 6.66233 1.79438 6.03926 1.8688ZM11.2178 5.77326L10.0951 1.62263L10.2597 1.50813L10.3714 1.54248L12.4816 2.88786L11.7292 5.47556L11.2178 5.77326ZM10.4889 1.9604L11.4 5.33244L11.4764 5.28664L12.1406 3.00808L10.4889 1.9604Z" fill="#FFFFFF"/>
</svg>
