<?xml version="1.0" encoding="utf-8"?>
<!-- Generator: Adobe Illustrator 26.0.3, SVG Export Plug-In . SVG Version: 6.00 Build 0)  -->
<svg version="1.2" baseProfile="tiny" id="Layer_1" xmlns="http://www.w3.org/2000/svg" xmlns:xlink="http://www.w3.org/1999/xlink"
	 x="0px" y="0px" viewBox="0 0 13.1 12.6" overflow="visible" xml:space="preserve">
<path fill="#FFFFFF" d="M9,5.3c-0.2,0-0.4,0-0.7,0c-0.5,0-1,0.1-1.6,0.1c-0.2,0-0.4,0-0.7,0.1c0,0-0.1,0-0.1,0
	C5.2,6,4.4,6.4,3.7,6.9c0,0,0,0,0,0c0,0,0.1,0,0.1,0c0.7,0.2,1.4,0.3,2.1,0.5C5.9,7.4,6,7.5,6,7.6c0.4,1.6,0.8,3.1,1.3,4.6
	c0,0.1,0,0.1,0,0.2c0,0.1-0.1,0.1-0.2,0.1c-0.5-0.1-1-0.2-1.5-0.3c-0.5-0.1-1-0.2-1.5-0.3c-0.1,0-0.1,0-0.2-0.1
	c-0.8-0.5-1.6-1-2.4-1.6c-0.1,0-0.1-0.1-0.1-0.2C1,8.6,0.6,7.1,0.2,5.6c-0.1-0.3-0.1-0.5,0-0.7c0.2-0.7,0.4-1.5,0.7-2.2
	c0-0.1,0.1-0.1,0.1-0.2c1.2-0.7,2.4-1.3,3.5-2c0.1,0,0.1,0,0.2,0c0.9-0.1,1.8-0.1,2.8-0.2c0.5,0,1-0.1,1.5-0.1c0.1,0,0.1,0,0.2,0
	c0.8,0.5,1.6,1,2.4,1.6c0.1,0,0.1,0.1,0.1,0.2C12.1,3.5,12.5,5,13,6.6c0,0.1,0,0.1,0,0.2c-0.2,0.8-0.5,1.7-0.7,2.5
	c0,0.1-0.1,0.1-0.1,0.2c-1.2,0.7-2.3,1.3-3.5,2c-0.2,0.1-0.3,0-0.3-0.1C7.8,9.8,7.4,8.2,7,6.7c0-0.1,0-0.2,0.1-0.3
	C7.7,6.1,8.3,5.7,9,5.3C8.9,5.4,9,5.4,9,5.3C9,5.3,9,5.3,9,5.3z M8.9,0.5c-0.2,0-3.9,0.2-4,0.3c0.4,1.5,0.8,2.9,1.2,4.4
	c0.2,0,0.5,0,0.7,0C7.7,5.1,8.5,5,9.4,5C9.6,5,9.8,4.9,10,4.7C9.7,3.3,9.3,1.9,8.9,0.5z M11.9,9.2c-0.4-1.5-0.8-3-1.2-4.5
	C9.5,5.4,8.4,6,7.3,6.7c0.4,1.5,0.8,3,1.2,4.5C9.6,10.5,10.7,9.8,11.9,9.2z M4.6,0.8C3.4,1.5,2.3,2.1,1.2,2.7c0,0.1,0,0.1,0,0.1
	c0.1,0.3,0.2,0.7,0.3,1C1.7,4.6,2,5.4,2.2,6.2c0,0.1,0,0.1,0.1,0.1c0.2,0.1,0.4,0.3,0.6,0.4c0.1,0.1,0.3,0.1,0.4,0
	c0.8-0.5,1.6-0.9,2.4-1.4c0,0,0.1,0,0.1-0.1C5.4,3.8,5,2.3,4.6,0.8z M6.9,12.1C6.9,12.1,6.9,12.1,6.9,12.1c-0.4-1.5-0.8-2.9-1.2-4.4
	c-0.1,0-0.1,0-0.1,0C4.8,7.5,4,7.3,3.3,7.2c-0.1,0-0.2,0-0.2,0.1c0.4,1.4,0.8,2.9,1.2,4.3C5.1,11.7,6,11.9,6.9,12.1z M3.8,11.3
	c0-0.1,0-0.1,0-0.1C3.4,9.8,3,8.4,2.7,7.1C2.7,7,2.6,7,2.6,6.9C1.9,6.5,1.3,6.1,0.6,5.7c0,0-0.1,0-0.1,0c0,0.1,0,0.1,0,0.2
	c0.4,1.3,0.7,2.7,1.1,4c0,0.1,0.1,0.1,0.1,0.2c0.6,0.4,1.3,0.8,1.9,1.2C3.7,11.2,3.7,11.2,3.8,11.3z M12.1,8.7
	C12.1,8.6,12.1,8.6,12.1,8.7c0.2-0.7,0.4-1.3,0.6-1.9c0-0.1,0-0.1,0-0.2c-0.1-0.2-0.1-0.4-0.2-0.7c-0.3-1.1-0.6-2.2-0.9-3.3
	c0,0,0-0.1,0-0.1c0,0,0,0.1,0,0.1c-0.2,0.6-0.4,1.2-0.5,1.8c0,0,0,0.1,0,0.1c0.4,1.3,0.7,2.6,1.1,3.9C12,8.6,12,8.6,12.1,8.7z
	 M10.6,4.4c0.2-0.8,0.5-1.6,0.7-2.4c-0.7-0.4-1.3-0.9-2-1.3c0,0,0,0,0,0c0.3,1.3,0.7,2.6,1,3.9C10.4,4.5,10.5,4.5,10.6,4.4z M1,3.3
	C1,3.3,1,3.3,1,3.3C0.8,3.9,0.6,4.6,0.5,5.2C0.9,5.5,1.3,5.7,1.7,6c0,0,0,0,0,0C1.5,5.1,1.3,4.2,1,3.3z"/>
<path fill="#FFFFFF" d="M7.1,12.6C7.1,12.6,7.1,12.6,7.1,12.6l-1.9-0.4C4.8,12.1,4.4,12,4.1,12c-0.1,0-0.1,0-0.2-0.1l-2.4-1.6
	c-0.1,0-0.2-0.1-0.2-0.2L1,9.2C0.7,8,0.4,6.8,0.1,5.7C0,5.4,0,5.1,0.1,4.9C0.3,4.3,0.4,3.6,0.6,3l0.1-0.4c0-0.1,0.1-0.2,0.2-0.3
	l3.5-2c0.1,0,0.2-0.1,0.2-0.1c0.5,0,1.1-0.1,1.6-0.1l1.8-0.1C8.4,0,8.7,0,9,0C9,0,9.1,0,9.2,0.1c0.8,0.5,1.6,1,2.4,1.6
	c0.1,0.1,0.1,0.1,0.2,0.2c0.4,1.6,0.9,3.1,1.3,4.7c0,0.1,0,0.2,0,0.3c-0.1,0.5-0.3,0.9-0.4,1.4c-0.1,0.4-0.2,0.8-0.3,1.1
	c0,0.1-0.1,0.2-0.2,0.3c-1.2,0.7-2.3,1.3-3.5,2c-0.1,0.1-0.2,0.1-0.3,0c-0.1,0-0.2-0.1-0.2-0.3C7.7,9.8,7.3,8.3,6.8,6.7
	C6.8,6.5,6.8,6.4,7,6.3l1.4-0.8c0,0-0.1,0-0.1,0L6.6,5.6c-0.2,0-0.3,0-0.5,0c0,0-0.1,0-0.1,0C5.3,6.1,4.7,6.5,4,6.8
	C4.6,7,5.2,7.1,5.8,7.2c0.2,0,0.3,0.1,0.3,0.3l1.3,4.6c0,0.1,0,0.1,0,0.2C7.4,12.5,7.3,12.6,7.1,12.6z M0.3,5.3c0,0.1,0,0.2,0,0.3
	C0.7,6.8,1,8,1.3,9.1L1.5,10c0,0,0,0.1,0.1,0.1L4,11.6c0,0,0.1,0,0.1,0c0.4,0.1,0.8,0.2,1.2,0.3l1.8,0.4c0,0,0.1,0,0.1,0
	c0,0,0,0,0-0.1L5.8,7.6c0-0.1,0-0.1-0.1-0.1c-0.7-0.1-1.3-0.3-2-0.4l-0.1,0c0,0-0.1,0-0.1,0L3.4,6.9l0.1-0.2c0,0,0,0,0.1-0.1
	l0.2-0.1c0.7-0.4,1.4-0.8,2.1-1.2c0.1,0,0.1-0.1,0.2-0.1c0.2,0,0.3,0,0.5,0l1.8-0.1c0.1,0,0.3,0,0.4,0l0.3,0l0,0.2L9.1,5.5
	c0,0,0,0-0.1,0l-1.8,1c0,0-0.1,0-0.1,0c0,0,0,0,0,0.1C7.5,8.2,8,9.8,8.4,11.3c0,0,0,0.1,0,0.1c0,0,0,0,0.1,0c1.2-0.7,2.3-1.3,3.5-2
	c0,0,0.1-0.1,0.1-0.1c0.1-0.4,0.2-0.8,0.3-1.1c0.1-0.5,0.3-0.9,0.4-1.4c0,0,0-0.1,0-0.1c-0.4-1.6-0.8-3.1-1.3-4.7c0,0,0-0.1-0.1-0.1
	c-0.8-0.5-1.6-1-2.4-1.6c0,0-0.1,0-0.1,0c-0.3,0-0.6,0-0.9,0.1L6.3,0.5c-0.5,0-1.1,0.1-1.6,0.1c0,0-0.1,0-0.1,0l-3.5,2
	c0,0-0.1,0-0.1,0.1L0.9,3.1C0.7,3.7,0.5,4.3,0.3,4.9C0.3,5,0.3,5.1,0.3,5.3l0.6-2.1l0.2,0l0.1,0.1l0.8,2.8L1.8,6.2l-0.1,0L0.3,5.3z
	 M0.6,5.1l0.9,0.6L1,3.8L0.6,5.1z M6.8,12.2l-2.8-0.6L2.9,7.2L3,7.1C3.1,7,3.2,7,3.3,7c0.5,0.1,1,0.2,1.6,0.3l0.7,0.2
	c0,0,0.1,0,0.1,0l0.1,0l1.2,4.5l-0.1,0.1H6.8z M4.3,11.4l2.4,0.5L5.6,7.8c0,0,0,0-0.1,0L4.8,7.6c-0.5-0.1-1-0.2-1.6-0.3c0,0,0,0,0,0
	L4.3,11.4z M4,11.5l-0.3-0.2c0,0-0.1,0-0.1,0L3.1,11c-0.4-0.3-0.9-0.6-1.3-0.9C1.6,10.1,1.6,10,1.5,9.9c-0.3-1-0.5-2-0.8-3L0.3,5.4
	l0.3,0.1c0,0,0.1,0,0.1,0L1,5.8c0.5,0.3,1.1,0.7,1.6,1.1C2.7,6.9,2.8,7,2.8,7c0.4,1.4,0.7,2.7,1.1,4.1c0,0,0,0.1,0,0.1L4,11.5z
	 M0.8,5.9L1,6.8c0.3,1,0.5,2,0.8,3c0,0,0,0.1,0.1,0.1c0.4,0.3,0.9,0.6,1.3,0.9L3.6,11c-0.3-1.3-0.7-2.6-1-3.8c0,0,0-0.1,0-0.1
	C1.9,6.7,1.4,6.3,0.8,5.9L0.8,5.9z M8.4,11.3L7.1,6.6l3.6-2.1L12,9.3L8.4,11.3z M7.5,6.7l1.1,4.2l3.1-1.8L10.6,5L7.5,6.7z M12,9
	l-0.1-0.4c0,0,0-0.1,0-0.1c-0.4-1.3-0.7-2.6-1.1-3.9c0,0,0-0.1,0-0.2c0.2-0.5,0.3-1.1,0.5-1.6l0.1-0.3l0.1-0.3l0.1,0.4
	c0,0,0,0.1,0,0.1l0.9,3.4c0,0.2,0.1,0.3,0.1,0.5c0,0.1,0,0.1,0,0.2c-0.2,0.6-0.4,1.2-0.5,1.8c0,0.1,0,0.1,0,0.1L12,9z M11.5,3
	c-0.1,0.5-0.3,1-0.4,1.5c0,0,0,0,0,0.1c0.3,1.2,0.6,2.4,1,3.6c0.1-0.5,0.3-1,0.4-1.4c0,0,0-0.1,0-0.1c0-0.2-0.1-0.3-0.1-0.5L11.5,3z
	 M3.1,6.9c-0.1,0-0.2,0-0.3-0.1C2.5,6.7,2.3,6.6,2.2,6.5C2.1,6.4,2,6.3,2,6.2C1.9,5.7,1.7,5.1,1.5,4.5L1.1,2.9c0,0,0-0.1,0-0.1
	l0-0.1l3.6-2l1.3,4.7L5.8,5.4c0,0-0.1,0-0.1,0.1L5.1,5.9c-0.6,0.3-1.1,0.6-1.7,1C3.3,6.9,3.2,6.9,3.1,6.9z M1.4,2.8L1.4,2.8l0.4,1.6
	C2,5,2.1,5.6,2.3,6.2c0,0,0,0.1,0,0.1c0.2,0.1,0.4,0.2,0.6,0.4c0.1,0.1,0.2,0.1,0.3,0c0.6-0.3,1.1-0.7,1.7-1l0.7-0.4c0,0,0,0,0,0
	L4.5,1.1L1.4,2.8z M6,5.4L4.7,0.7l0.1-0.1c0.2-0.1,4-0.3,4.1-0.3l0.1,0l1.2,4.4l-0.1,0.1C9.9,5,9.7,5.1,9.4,5.1
	c-0.6,0-1.2,0.1-1.8,0.1L6,5.4z M5.1,0.9l1.1,4.2L7.5,5c0.6,0,1.2-0.1,1.8-0.1c0.2,0,0.3-0.1,0.5-0.2l-1.1-4
	C8.2,0.6,5.7,0.8,5.1,0.9z M10.2,4.8L9.1,0.6l0.2-0.1l0.1,0l2.1,1.3l-0.8,2.6L10.2,4.8z M9.5,1l0.9,3.4l0.1,0L11.2,2L9.5,1z"/>
</svg>
