<?xml version="1.0" encoding="utf-8"?>
<!-- Generator: Adobe Illustrator 26.0.3, SVG Export Plug-In . SVG Version: 6.00 Build 0)  -->
<svg version="1.2" baseProfile="tiny" id="Layer_1" xmlns="http://www.w3.org/2000/svg" xmlns:xlink="http://www.w3.org/1999/xlink"
	 x="0px" y="0px" viewBox="0 0 111 111" overflow="visible" xml:space="preserve">
<path fill="#2F2F2F" d="M26.3,53.5l11,11.5c0.7,0.7,0.7,1.8,0,2.4L13.4,93.2c-0.2,0.2-0.3,0.4-0.4,0.7l-2.7,4.8
	c-0.4,1.3,0.8,2.6,2.1,2.2l4.8-2.1c0.3-0.1,0.5-0.2,0.7-0.4l25.9-24.5c0.7-0.7,1.7-0.7,2.4,0L57,84.6c0.9,0.9,2.5,0.5,2.9-0.8
	c0.9-3.3,5.5-5.4,4.3-9.5c-0.2-0.6,0-1.3,0.5-1.8c5.5-5.3,22.1-21.9,25.1-25c0.3-0.3,0.7-0.5,1.1-0.5c1.4,0,5-0.2,8.7-1.3
	c1.3-0.3,1.7-1.9,0.7-2.8L68,10.6c-1-1-2.6-0.5-2.9,0.8c-0.7,3-1.1,7.4-1.2,9c0,0.4-0.2,0.8-0.5,1.1l-25,25C38,46.9,37.5,47.1,37,47
	c-2.2-0.3-4.7,2.2-10,3.6C25.8,51,25.4,52.6,26.3,53.5z"/>
</svg>
